<svg width="16" height="16" viewBox="0 0 16 16" fill="none" xmlns="http://www.w3.org/2000/svg">
<rect x="6" y="16" width="4" height="4" rx="2" transform="rotate(-90 6 16)" fill="#E0EDFA"/>
<rect y="16" width="4" height="4" rx="2" transform="rotate(-90 0 16)" fill="#E0EDFA"/>
<rect x="12" y="16" width="4" height="4" rx="2" transform="rotate(-90 12 16)" fill="#E0EDFA"/>
<rect x="6" y="10" width="4" height="4" rx="2" transform="rotate(-90 6 10)" fill="#E0EDFA"/>
<rect y="10" width="4" height="4" rx="2" transform="rotate(-90 0 10)" fill="#E0EDFA"/>
<rect x="12" y="10" width="4" height="4" rx="2" transform="rotate(-90 12 10)" fill="#E0EDFA"/>
<rect x="6" y="4" width="4" height="4" rx="2" transform="rotate(-90 6 4)" fill="#E0EDFA"/>
<rect y="4" width="4" height="4" rx="2" transform="rotate(-90 0 4)" fill="#E0EDFA"/>
<rect x="12" y="4" width="4" height="4" rx="2" transform="rotate(-90 12 4)" fill="#E0EDFA"/>
</svg>
